# xmcd
#
# Track frame offsets: 
#        150
#        11682
#        27547
#        63225
#        77207
#        99007
#        116832
#        148465
#        164962
#        176325
#        188362
#        202697
#        214455
#
# Disc length: 3009 seconds
#
# Revision: 6
# Processed by: cddbd v1.5.2PL0 Copyright (c) Steve Scherf et al.
# Submitted via: ExactAudioCopy v1.0b3
#
DISCID=b60bbf0d
DTITLE=Holmes Brothers - Jubilation
DYEAR=1992
DGENRE=Blues
TTITLE0=Jesus is alright
TTITLE1=I had my chance
TTITLE2=Amazing grace
TTITLE3=I'll fly away
TTITLE4=I want Jesus to walk with me
TTITLE5=Pass me not oh gentle saviour
TTITLE6=Will the circle be unbroken
TTITLE7=Just a closer walk with Thee
TTITLE8=All night, all day
TTITLE9=Do Lord
TTITLE10=Oh how I love Jesus
TTITLE11=The power of the Lord come down
TTITLE12=A brother's prayer
EXTD=
EXTT0=
EXTT1=
EXTT2=
EXTT3=
EXTT4=
EXTT5=
EXTT6=
EXTT7=
EXTT8=
EXTT9=
EXTT10=
EXTT11=
EXTT12=
PLAYORDER=
